<svg width="16" height="11" viewBox="0 0 16 11" fill="none" xmlns="http://www.w3.org/2000/svg">
<path fill-rule="evenodd" clip-rule="evenodd" d="M7.40988 11H8.59388C8.85741 10.7105 9.17365 10.46 9.53035 10.2591C10.9224 9.47936 13.2998 9.43684 14.5995 10.3577H16V2.03536C16 2.03536 15.2499 0 11.84 0C10.0753 0 9.10871 0.544572 8.58729 1.07105C8.22118 1.43923 8.07435 1.79745 8.02259 1.95395H7.97647C7.92565 1.79745 7.77882 1.43832 7.41271 1.07105C6.89129 0.544572 5.92471 0 4.16 0C0.750118 0 0 2.03536 0 2.03536V10.3487H1.40047C2.70118 9.42689 5.08047 9.47122 6.47153 10.2537C6.82918 10.4554 7.14635 10.7078 7.40988 11ZM8.47059 2.21538V9.86563C8.65443 9.7233 8.84957 9.59424 9.056 9.47845C9.92847 8.98906 11.0466 8.75839 12.1064 8.76653C13.0532 8.77377 14.0649 8.97187 14.8847 9.45312H15.0588V2.24071L15.0306 2.19548C14.9496 2.07064 14.8085 1.88882 14.5845 1.70247C14.1506 1.34334 13.3327 0.904605 11.84 0.904605C10.3473 0.904605 9.63765 1.34243 9.30447 1.65995C9.12659 1.82821 9.02588 1.99194 8.97224 2.10321C8.94463 2.15929 8.928 2.19879 8.92235 2.22171L8.91765 2.23709L8.91859 2.23166L8.92047 2.22442V2.2199L8.92141 2.21809V2.21628L8.91671 2.21538H8.47059ZM7.52941 2.21538H7.08329L7.07765 2.21628V2.21809L7.07859 2.2199L7.07953 2.22442L7.08141 2.23166L7.08235 2.23709C7.08298 2.23769 7.08141 2.23257 7.07765 2.22171C7.07137 2.19879 7.05475 2.15929 7.02776 2.10321C6.97412 1.99194 6.87341 1.82821 6.69553 1.65995C6.36235 1.34243 5.65271 0.904605 4.16 0.904605C2.66824 0.904605 1.84941 1.34334 1.41553 1.70247C1.19153 1.88882 1.05035 2.07064 0.969412 2.19548L0.941176 2.24071V9.44408H1.11529C1.936 8.96283 2.94871 8.76382 3.89553 8.75748C4.95718 8.75025 6.07529 8.98273 6.94776 9.47393C7.15231 9.58912 7.3462 9.71757 7.52941 9.85929V2.21538Z" fill="white"/>
</svg>
