<svg width="16" height="12" viewBox="0 0 16 12" fill="none" xmlns="http://www.w3.org/2000/svg">
<path d="M2.439 5.235L3.067 4.941L3.01 4.249C3.00333 4.167 3 4.084 3 4C3 2.343 4.343 1 6 1C7.208 1 8.25 1.714 8.727 2.746L9.163 3.693L10.09 3.218C10.362 3.078 10.67 3 11 3C12.105 3 13 3.895 13 5L12.997 5.114L12.955 5.864L13.664 6.112C14.444 6.387 15 7.13 15 8C15 9.105 14.105 10 13 10V11C14.657 11 16 9.657 16 8C16 6.692 15.163 5.58 13.995 5.17C13.9983 5.11333 14 5.05667 14 5C14 3.343 12.657 2 11 2C10.596 2 10.21 2.08 9.86 2.224C9.78267 2.256 9.70767 2.29067 9.635 2.328C9.589 2.228 9.539 2.13033 9.485 2.035C8.798 0.82 7.495 0 6 0C3.79 0 2 1.79 2 4C2 4.11067 2.00467 4.22067 2.014 4.33C0.824 4.89 0 6.1 0 7.5C0 9.263 1.304 10.722 3 10.965V9.95C1.859 9.718 1 8.71 1 7.5C1 6.5 1.587 5.636 2.439 5.235Z" fill="white"/>
<path fill-rule="evenodd" clip-rule="evenodd" d="M8 6L11 8.61035L10.3667 9.16154L8.44723 7.49007V12H7.55277V7.49007L5.63327 9.16154L5 8.61035L8 6Z" fill="white"/>
</svg>
