<svg width="13" height="13" viewBox="0 0 13 13" fill="none" xmlns="http://www.w3.org/2000/svg">
<path fill-rule="evenodd" clip-rule="evenodd" d="M7 1.525V0H6V1.525C3.638 1.759 1.76 3.638 1.525 6H0V7H1.525C1.759 9.362 3.638 11.24 6 11.475V13H7V11.475C9.362 11.241 11.24 9.362 11.475 7H13V6H11.475C11.241 3.638 9.362 1.76 7 1.525ZM6 2.531V5H7V2.531C8.81 2.757 10.243 4.191 10.47 6H8V7H10.47C10.243 8.81 8.81 10.243 7 10.47V8H6V10.47C4.19 10.243 2.757 8.81 2.531 7H5V6H2.531C2.757 4.19 4.19 2.757 6 2.531Z" fill="white"/>
</svg>
