<svg width="12" height="12" viewBox="0 0 12 12" fill="none" xmlns="http://www.w3.org/2000/svg">
<path fill-rule="evenodd" clip-rule="evenodd" d="M7.04 7.81C6.301 8.386 5.372 8.727 4.364 8.727C1.953 8.727 0 6.775 0 4.364C0 1.953 1.953 0 4.364 0C6.774 0 8.727 1.953 8.727 4.364C8.727 5.372 8.385 6.301 7.811 7.04L11.295 10.523L10.523 11.294L7.04 7.81ZM7.636 4.364C7.636 6.171 6.171 7.636 4.364 7.636C2.556 7.636 1.091 6.171 1.091 4.364C1.091 2.556 2.556 1.091 4.364 1.091C6.171 1.091 7.636 2.556 7.636 4.364Z" fill="white"/>
<line x1="2" y1="4.5" x2="7" y2="4.5" stroke="white"/>
<line x1="4.5" y1="7" x2="4.5" y2="2" stroke="white"/>
</svg>
